<svg id="visual" viewBox="0 0 900 600" width="900" height="600" xmlns="http://www.w3.org/2000/svg" xmlns:xlink="http://www.w3.org/1999/xlink" version="1.1"><path d="M0 386L21.5 382C43 378 86 370 128.8 366.2C171.7 362.3 214.3 362.7 257.2 371.5C300 380.3 343 397.7 385.8 409.8C428.7 422 471.3 429 514.2 425.2C557 421.3 600 406.7 642.8 407C685.7 407.3 728.3 422.7 771.2 430C814 437.3 857 436.7 878.5 436.3L900 436L900 601L878.5 601C857 601 814 601 771.2 601C728.3 601 685.7 601 642.8 601C600 601 557 601 514.2 601C471.3 601 428.7 601 385.8 601C343 601 300 601 257.2 601C214.3 601 171.7 601 128.8 601C86 601 43 601 21.5 601L0 601Z" fill="#730800"></path><path d="M0 446L21.5 438.5C43 431 86 416 128.8 409.2C171.7 402.3 214.3 403.7 257.2 415.2C300 426.7 343 448.3 385.8 457.7C428.7 467 471.3 464 514.2 459.2C557 454.3 600 447.7 642.8 441.8C685.7 436 728.3 431 771.2 430.2C814 429.3 857 432.7 878.5 434.3L900 436L900 601L878.5 601C857 601 814 601 771.2 601C728.3 601 685.7 601 642.8 601C600 601 557 601 514.2 601C471.3 601 428.7 601 385.8 601C343 601 300 601 257.2 601C214.3 601 171.7 601 128.8 601C86 601 43 601 21.5 601L0 601Z" fill="#941907"></path><path d="M0 447L21.5 449.2C43 451.3 86 455.7 128.8 458.2C171.7 460.7 214.3 461.3 257.2 458C300 454.7 343 447.3 385.8 449.2C428.7 451 471.3 462 514.2 468.5C557 475 600 477 642.8 478.3C685.7 479.7 728.3 480.3 771.2 478.3C814 476.3 857 471.7 878.5 469.3L900 467L900 601L878.5 601C857 601 814 601 771.2 601C728.3 601 685.7 601 642.8 601C600 601 557 601 514.2 601C471.3 601 428.7 601 385.8 601C343 601 300 601 257.2 601C214.3 601 171.7 601 128.8 601C86 601 43 601 21.5 601L0 601Z" fill="#b7290a"></path><path d="M0 543L21.5 538.3C43 533.7 86 524.3 128.8 524C171.7 523.7 214.3 532.3 257.2 527C300 521.7 343 502.3 385.8 497.5C428.7 492.7 471.3 502.3 514.2 511.7C557 521 600 530 642.8 534.5C685.7 539 728.3 539 771.2 537.3C814 535.7 857 532.3 878.5 530.7L900 529L900 601L878.5 601C857 601 814 601 771.2 601C728.3 601 685.7 601 642.8 601C600 601 557 601 514.2 601C471.3 601 428.7 601 385.8 601C343 601 300 601 257.2 601C214.3 601 171.7 601 128.8 601C86 601 43 601 21.5 601L0 601Z" fill="#db3b0c"></path><path d="M0 541L21.5 543.5C43 546 86 551 128.8 555.5C171.7 560 214.3 564 257.2 563.3C300 562.7 343 557.3 385.8 555.8C428.7 554.3 471.3 556.7 514.2 560C557 563.3 600 567.7 642.8 569.8C685.7 572 728.3 572 771.2 568.3C814 564.7 857 557.3 878.5 553.7L900 550L900 601L878.5 601C857 601 814 601 771.2 601C728.3 601 685.7 601 642.8 601C600 601 557 601 514.2 601C471.3 601 428.7 601 385.8 601C343 601 300 601 257.2 601C214.3 601 171.7 601 128.8 601C86 601 43 601 21.5 601L0 601Z" fill="#ff4d0b"></path></svg>